<svg xmlns="http://www.w3.org/2000/svg" viewBox="0 0 64 64"><path fill="#57bb6e" d="M39.65 38.35a7.65 7.65 0 1 1-15.3 0 7.65 7.65 0 0 1 15.3 0zm8.07 23.39H16.28C16.28 53.05 23.31 46 32 46c8.69.01 15.72 7.05 15.72 15.74z"/><path fill="#ffd926" d="M35.39 5.65c0 1.87-1.52 3.39-3.39 3.39s-3.39-1.52-3.39-3.39S30.13 2.26 32 2.26s3.39 1.51 3.39 3.39z"/><path fill="#e82327" d="M17.32 9.21c1.07 1.53.7 3.65-.83 4.72-1.53 1.07-3.65.7-4.72-.83-1.07-1.53-.7-3.65.83-4.72a3.378 3.378 0 0 1 4.72.83z"/><path fill="#87d4f2" d="M4.55 22.49c1.76.64 2.67 2.59 2.03 4.35-.64 1.76-2.59 2.67-4.35 2.03S-.44 26.28.2 24.52a3.4 3.4 0 0 1 4.35-2.03z"/><path fill="#e82327" d="M52.24 13.1a3.386 3.386 0 0 1-4.72.83 3.386 3.386 0 0 1-.83-4.72c1.07-1.53 3.19-1.91 4.72-.83s1.9 3.18.83 4.72z"/><path fill="#efefef" d="M32 12.65c-.55 0-1 .45-1 1v9.98c0 .55.45 1 1 1s1-.45 1-1v-9.98c0-.55-.45-1-1-1zm-12.05 4.49c-.32-.45-.94-.56-1.39-.25-.45.32-.56.94-.25 1.39l5.72 8.18a.998.998 0 0 0 1.39.25c.45-.32.56-.94.25-1.39l-5.72-8.18zm.68 13.75-9.38-3.41a.998.998 0 0 0-1.28.6c-.19.52.08 1.09.6 1.28l9.38 3.41a.998.998 0 0 0 1.28-.6.998.998 0 0 0-.6-1.28zm24.82-14a.988.988 0 0 0-1.39.25l-5.73 8.18a.988.988 0 0 0 .25 1.39c.17.12.37.18.57.18.32 0 .63-.15.82-.43l5.73-8.18c.31-.45.2-1.07-.25-1.39zm8.58 11.18a.998.998 0 0 0-1.28-.6l-9.38 3.41c-.52.19-.79.76-.6 1.28a.998.998 0 0 0 1.28.6l9.38-3.41c.52-.18.79-.76.6-1.28z"/><path fill="#87d4f2" d="M61.77 28.87c-1.76.64-3.71-.27-4.35-2.03-.64-1.76.27-3.71 2.03-4.35 1.76-.64 3.71.27 4.35 2.03.64 1.76-.27 3.71-2.03 4.35z"/></svg>